<mxfile host="app.diagrams.net" modified="2022-01-12T02:35:01.895Z" agent="5.0 (Windows NT 10.0; Win64; x64) AppleWebKit/537.36 (KHTML, like Gecko) Chrome/97.0.4692.71 Safari/537.36 Edg/97.0.1072.55" etag="pvWrAvkfc7LkBH3H-p3S" version="16.2.4" type="github">
  <diagram id="X3KSrN480F1k04d-iEKf" name="Page-1">
    <mxGraphModel dx="2605" dy="965" grid="1" gridSize="10" guides="1" tooltips="1" connect="1" arrows="1" fold="1" page="1" pageScale="1" pageWidth="827" pageHeight="1169" math="0" shadow="0">
      <root>
        <mxCell id="0" />
        <mxCell id="1" parent="0" />
        <mxCell id="jKy7OVAhunT3jiafZpGO-3" value="" style="edgeStyle=orthogonalEdgeStyle;rounded=0;orthogonalLoop=1;jettySize=auto;html=1;" edge="1" parent="1" source="jKy7OVAhunT3jiafZpGO-1" target="jKy7OVAhunT3jiafZpGO-16">
          <mxGeometry relative="1" as="geometry">
            <mxPoint x="370" y="180" as="targetPoint" />
          </mxGeometry>
        </mxCell>
        <mxCell id="jKy7OVAhunT3jiafZpGO-11" value="" style="edgeStyle=orthogonalEdgeStyle;rounded=0;orthogonalLoop=1;jettySize=auto;html=1;" edge="1" parent="1" source="jKy7OVAhunT3jiafZpGO-1" target="jKy7OVAhunT3jiafZpGO-17">
          <mxGeometry relative="1" as="geometry">
            <mxPoint x="590" y="180" as="targetPoint" />
            <Array as="points">
              <mxPoint x="370" y="140" />
              <mxPoint x="590" y="140" />
            </Array>
          </mxGeometry>
        </mxCell>
        <mxCell id="jKy7OVAhunT3jiafZpGO-14" value="" style="edgeStyle=orthogonalEdgeStyle;rounded=0;orthogonalLoop=1;jettySize=auto;html=1;" edge="1" parent="1" source="jKy7OVAhunT3jiafZpGO-1" target="jKy7OVAhunT3jiafZpGO-15">
          <mxGeometry relative="1" as="geometry">
            <mxPoint x="170" y="180" as="targetPoint" />
            <Array as="points">
              <mxPoint x="370" y="140" />
              <mxPoint x="170" y="140" />
            </Array>
          </mxGeometry>
        </mxCell>
        <mxCell id="jKy7OVAhunT3jiafZpGO-1" value="Log IN Page" style="rounded=1;whiteSpace=wrap;html=1;" vertex="1" parent="1">
          <mxGeometry x="310" y="60" width="120" height="60" as="geometry" />
        </mxCell>
        <mxCell id="jKy7OVAhunT3jiafZpGO-34" value="" style="edgeStyle=orthogonalEdgeStyle;rounded=0;orthogonalLoop=1;jettySize=auto;html=1;" edge="1" parent="1" source="jKy7OVAhunT3jiafZpGO-15">
          <mxGeometry relative="1" as="geometry">
            <mxPoint x="170" y="280" as="targetPoint" />
          </mxGeometry>
        </mxCell>
        <mxCell id="jKy7OVAhunT3jiafZpGO-15" value="Create ID" style="rounded=1;whiteSpace=wrap;html=1;" vertex="1" parent="1">
          <mxGeometry x="110" y="180" width="120" height="60" as="geometry" />
        </mxCell>
        <mxCell id="jKy7OVAhunT3jiafZpGO-16" value="Log In" style="rounded=1;whiteSpace=wrap;html=1;" vertex="1" parent="1">
          <mxGeometry x="310" y="180" width="120" height="60" as="geometry" />
        </mxCell>
        <mxCell id="jKy7OVAhunT3jiafZpGO-17" value="Find ID/PW" style="rounded=1;whiteSpace=wrap;html=1;" vertex="1" parent="1">
          <mxGeometry x="530" y="180" width="120" height="60" as="geometry" />
        </mxCell>
        <mxCell id="jKy7OVAhunT3jiafZpGO-25" style="edgeStyle=orthogonalEdgeStyle;rounded=0;orthogonalLoop=1;jettySize=auto;html=1;" edge="1" parent="1" source="jKy7OVAhunT3jiafZpGO-19" target="jKy7OVAhunT3jiafZpGO-21">
          <mxGeometry relative="1" as="geometry" />
        </mxCell>
        <mxCell id="jKy7OVAhunT3jiafZpGO-19" value="&amp;nbsp;정보입력" style="shape=parallelogram;perimeter=parallelogramPerimeter;whiteSpace=wrap;html=1;fixedSize=1;" vertex="1" parent="1">
          <mxGeometry x="110" y="420" width="120" height="60" as="geometry" />
        </mxCell>
        <mxCell id="jKy7OVAhunT3jiafZpGO-21" value="정보 " style="swimlane;fontStyle=0;childLayout=stackLayout;horizontal=1;startSize=30;horizontalStack=0;resizeParent=1;resizeParentMax=0;resizeLast=0;collapsible=1;marginBottom=0;" vertex="1" parent="1">
          <mxGeometry x="-210" y="470" width="140" height="120" as="geometry" />
        </mxCell>
        <mxCell id="jKy7OVAhunT3jiafZpGO-22" value=" ID" style="text;strokeColor=none;fillColor=none;align=left;verticalAlign=middle;spacingLeft=4;spacingRight=4;overflow=hidden;points=[[0,0.5],[1,0.5]];portConstraint=eastwest;rotatable=0;" vertex="1" parent="jKy7OVAhunT3jiafZpGO-21">
          <mxGeometry y="30" width="140" height="30" as="geometry" />
        </mxCell>
        <mxCell id="jKy7OVAhunT3jiafZpGO-23" value="Password" style="text;strokeColor=none;fillColor=none;align=left;verticalAlign=middle;spacingLeft=4;spacingRight=4;overflow=hidden;points=[[0,0.5],[1,0.5]];portConstraint=eastwest;rotatable=0;" vertex="1" parent="jKy7OVAhunT3jiafZpGO-21">
          <mxGeometry y="60" width="140" height="30" as="geometry" />
        </mxCell>
        <mxCell id="jKy7OVAhunT3jiafZpGO-24" value="Type" style="text;strokeColor=none;fillColor=none;align=left;verticalAlign=middle;spacingLeft=4;spacingRight=4;overflow=hidden;points=[[0,0.5],[1,0.5]];portConstraint=eastwest;rotatable=0;" vertex="1" parent="jKy7OVAhunT3jiafZpGO-21">
          <mxGeometry y="90" width="140" height="30" as="geometry" />
        </mxCell>
        <mxCell id="jKy7OVAhunT3jiafZpGO-26" value="DB" style="swimlane;fontStyle=0;childLayout=stackLayout;horizontal=1;startSize=30;horizontalStack=0;resizeParent=1;resizeParentMax=0;resizeLast=0;collapsible=1;marginBottom=0;" vertex="1" parent="1">
          <mxGeometry x="-483" y="470" width="140" height="120" as="geometry" />
        </mxCell>
        <mxCell id="jKy7OVAhunT3jiafZpGO-27" value="ID" style="text;strokeColor=none;fillColor=none;align=left;verticalAlign=middle;spacingLeft=4;spacingRight=4;overflow=hidden;points=[[0,0.5],[1,0.5]];portConstraint=eastwest;rotatable=0;" vertex="1" parent="jKy7OVAhunT3jiafZpGO-26">
          <mxGeometry y="30" width="140" height="30" as="geometry" />
        </mxCell>
        <mxCell id="jKy7OVAhunT3jiafZpGO-28" value="PW" style="text;strokeColor=none;fillColor=none;align=left;verticalAlign=middle;spacingLeft=4;spacingRight=4;overflow=hidden;points=[[0,0.5],[1,0.5]];portConstraint=eastwest;rotatable=0;" vertex="1" parent="jKy7OVAhunT3jiafZpGO-26">
          <mxGeometry y="60" width="140" height="30" as="geometry" />
        </mxCell>
        <mxCell id="jKy7OVAhunT3jiafZpGO-29" value="company_type" style="text;strokeColor=none;fillColor=none;align=left;verticalAlign=middle;spacingLeft=4;spacingRight=4;overflow=hidden;points=[[0,0.5],[1,0.5]];portConstraint=eastwest;rotatable=0;" vertex="1" parent="jKy7OVAhunT3jiafZpGO-26">
          <mxGeometry y="90" width="140" height="30" as="geometry" />
        </mxCell>
        <mxCell id="jKy7OVAhunT3jiafZpGO-30" style="edgeStyle=orthogonalEdgeStyle;rounded=0;orthogonalLoop=1;jettySize=auto;html=1;" edge="1" parent="1" source="jKy7OVAhunT3jiafZpGO-22" target="jKy7OVAhunT3jiafZpGO-27">
          <mxGeometry relative="1" as="geometry" />
        </mxCell>
        <mxCell id="jKy7OVAhunT3jiafZpGO-31" style="edgeStyle=orthogonalEdgeStyle;rounded=0;orthogonalLoop=1;jettySize=auto;html=1;" edge="1" parent="1" source="jKy7OVAhunT3jiafZpGO-23" target="jKy7OVAhunT3jiafZpGO-28">
          <mxGeometry relative="1" as="geometry" />
        </mxCell>
        <mxCell id="jKy7OVAhunT3jiafZpGO-32" style="edgeStyle=orthogonalEdgeStyle;rounded=0;orthogonalLoop=1;jettySize=auto;html=1;" edge="1" parent="1" source="jKy7OVAhunT3jiafZpGO-24" target="jKy7OVAhunT3jiafZpGO-29">
          <mxGeometry relative="1" as="geometry" />
        </mxCell>
        <mxCell id="jKy7OVAhunT3jiafZpGO-49" style="edgeStyle=orthogonalEdgeStyle;rounded=0;orthogonalLoop=1;jettySize=auto;html=1;entryX=0.008;entryY=0.4;entryDx=0;entryDy=0;entryPerimeter=0;" edge="1" parent="1" source="jKy7OVAhunT3jiafZpGO-35" target="jKy7OVAhunT3jiafZpGO-44">
          <mxGeometry relative="1" as="geometry" />
        </mxCell>
        <mxCell id="jKy7OVAhunT3jiafZpGO-35" value="Cafe24 Server" style="rounded=0;whiteSpace=wrap;html=1;" vertex="1" parent="1">
          <mxGeometry x="-230" y="282" width="120" height="60" as="geometry" />
        </mxCell>
        <mxCell id="jKy7OVAhunT3jiafZpGO-37" value="약관동의.txt파일 로드" style="text;html=1;align=center;verticalAlign=middle;resizable=0;points=[];autosize=1;strokeColor=none;fillColor=none;" vertex="1" parent="1">
          <mxGeometry x="-50" y="290" width="130" height="20" as="geometry" />
        </mxCell>
        <mxCell id="jKy7OVAhunT3jiafZpGO-41" value="약관동의.txt파일 요청" style="text;html=1;align=center;verticalAlign=middle;resizable=0;points=[];autosize=1;strokeColor=none;fillColor=none;" vertex="1" parent="1">
          <mxGeometry x="-40" y="340" width="130" height="20" as="geometry" />
        </mxCell>
        <mxCell id="jKy7OVAhunT3jiafZpGO-48" style="edgeStyle=orthogonalEdgeStyle;rounded=0;orthogonalLoop=1;jettySize=auto;html=1;entryX=1.003;entryY=0.628;entryDx=0;entryDy=0;entryPerimeter=0;" edge="1" parent="1" source="jKy7OVAhunT3jiafZpGO-44" target="jKy7OVAhunT3jiafZpGO-35">
          <mxGeometry relative="1" as="geometry" />
        </mxCell>
        <mxCell id="jKy7OVAhunT3jiafZpGO-51" value="" style="edgeStyle=orthogonalEdgeStyle;rounded=0;orthogonalLoop=1;jettySize=auto;html=1;entryX=0.5;entryY=0;entryDx=0;entryDy=0;" edge="1" parent="1" source="jKy7OVAhunT3jiafZpGO-44" target="jKy7OVAhunT3jiafZpGO-19">
          <mxGeometry relative="1" as="geometry">
            <mxPoint x="170" y="460" as="targetPoint" />
          </mxGeometry>
        </mxCell>
        <mxCell id="jKy7OVAhunT3jiafZpGO-44" value="&lt;span&gt;약관 동의&lt;/span&gt;" style="shape=document;whiteSpace=wrap;html=1;boundedLbl=1;" vertex="1" parent="1">
          <mxGeometry x="110" y="280" width="120" height="80" as="geometry" />
        </mxCell>
      </root>
    </mxGraphModel>
  </diagram>
</mxfile>
